Coordinates
version=1
nRows=8
nColumns=36
inDegrees=yes

Units are S.I. units (second, meters, Newtons, ...)
If the header above contains a line with 'inDegrees', this indicates whether rotational values are in degrees (yes) or radians (no).

endheader
time	pelvis_tilt	pelvis_list	pelvis_rotation	pelvis_tx	pelvis_ty	pelvis_tz	hip_flexion_r	hip_adduction_r	hip_rotation_r	knee_angle_r	knee_angle_r_beta	ankle_angle_r	subtalar_angle_r	mtp_angle_r	hip_flexion_l	hip_adduction_l	hip_rotation_l	knee_angle_l	knee_angle_l_beta	ankle_angle_l	subtalar_angle_l	mtp_angle_l	lumbar_extension	lumbar_bending	lumbar_rotation	arm_flex_r	arm_add_r	arm_rot_r	elbow_flex_r	pro_sup_r	arm_flex_l	arm_add_l	arm_rot_l	elbow_flex_l	pro_sup_l
     14.95000000	      6.42567523	      1.66897733	    -10.71968020	      0.63060887	      0.92323978	      0.73885063	     16.30093101	     -3.00616917	      1.75716279	     63.95922663	      1.11629909	      3.32208795	    -15.10023489	     -7.49999987	     -2.57409775	      6.31335974	      3.97941242	     13.71291244	      0.23933547	      8.49766625	    -12.88769810	     -7.49999987	    -11.16628864	     -3.51140673	      3.45668242	      2.82695055	     -9.06790601	     -4.71877895	     32.21262677	     85.27560584	      6.99728457	    -10.91290365	      9.42013584	     24.07903885	     75.49605083
     14.96666670	      6.57665601	      1.07754154	    -10.51764791	      0.62568017	      0.92443378	      0.74364448	     17.54882271	     -1.99947883	      1.43014115	     60.26020719	      1.05173902	      5.43729493	    -14.93193373	     -7.49999987	     -5.00836889	      5.81521797	      4.41237222	     12.75323790	      0.22258599	      9.46775236	    -12.80859938	     -7.49999987	    -11.47201355	     -2.79123177	      3.09935763	      1.30492477	     -8.55146380	     -5.54893265	     29.84361330	     85.30557680	      8.80655655	    -11.77361444	      9.50476807	     25.95042174	     75.80609064
     14.98333330	      6.87266110	      0.51508212	    -10.33873714	      0.61707955	      0.92948877	      0.74618298	     18.22475118	     -1.04793846	      1.15400021	     55.51225361	      0.96887160	      6.57898308	    -14.85916652	     -7.49999987	     -7.35369184	      5.29300701	      4.45743058	     11.95057262	      0.20857684	     10.38745024	    -12.41551506	     -7.49999987	    -12.19153000	     -2.25185877	      2.27307752	      0.59559657	     -7.63242866	     -7.85265267	     26.89153696	     85.99328611	     10.90680711	    -13.00582284	      9.68716874	     28.42248596	     77.45776454
     15.00000000	      7.08375308	     -0.08187365	    -10.14056646	      0.60901378	      0.93622212	      0.74571867	     18.57927880	     -0.12657740	      0.88980036	     49.84059201	      0.86988243	      6.79327628	    -14.69799628	     -7.49999987	     -9.37933064	      4.71709931	      4.44568766	     11.26641347	      0.19663601	     11.22954488	    -12.20552468	     -7.49999987	    -12.99351001	     -1.71692954	      1.74668417	     -0.21365711	     -7.06653313	     -9.77631746	     24.45968684	     85.88257766	     13.98762730	    -13.69306585	      9.72152372	     29.67020969	     78.31880887
     15.01666670	      7.21330013	     -0.56623572	     -9.90604707	      0.60178470	      0.93990990	      0.74235989	     18.82294772	      0.57456378	      0.68729449	     43.61480922	      0.76122202	      6.20676203	    -14.51246636	     -7.49999987	    -11.15268120	      4.25559841	      4.36688122	     10.60753854	      0.18513647	     12.04959191	    -11.99849195	     -7.49999987	    -13.80794125	     -1.33148155	      1.20742226	     -0.88899313	     -6.68903506	    -11.67353386	     22.38033549	     85.85239011	     17.20527790	    -14.07836287	      9.54374537	     30.74597590	     79.36100939
     15.03333330	      7.14238005	     -0.86567664	     -9.57737453	      0.59486358	      0.93725798	      0.73667394	     19.22196282	      0.96705817	      0.48473730	     37.12874098	      0.64801878	      5.03680619	    -14.23657023	     -7.49999987	    -12.61590661	      3.96605908	      4.24508552	      9.97781439	      0.17414571	     13.00160428	    -11.72718099	     -7.49999987	    -14.37506438	     -1.14223294	      0.61071091	     -1.63687403	     -6.52656898	    -13.05951155	     20.76562949	     84.88585117	     20.31762238	    -14.30262802	      9.33128770	     31.87494623	     79.36780197
     15.05000000	      6.80080498	     -0.90699120	     -9.13127961	      0.58919021	      0.93020761	      0.73128472	     19.92744003	      1.02543116	      0.23889016	     30.66078094	      0.53513158	      3.74634936	    -13.66931684	     -7.49999987	    -13.70221757	      3.90871878	      4.15341800	      9.39774441	      0.16402158	     14.06417005	    -11.49327263	     -7.49999987	    -14.53581214	     -1.15473095	     -0.10272656	     -2.19738535	     -6.47605095	    -14.49006475	     19.20394981	     84.61826051	     23.04569453	    -14.55448585	      8.98237652	     33.44330883	     79.97889126
     15.06666670	      6.40913901	     -0.88045165	     -8.50541052	      0.58617339	      0.92352486	      0.72904333	     20.53501296	      0.96038578	     -0.13813906	     24.19071590	      0.42220764	      2.65421002	    -12.81229507	     -7.49999987	    -14.62995448	      3.86447941	      4.02655969	      8.97183104	      0.15658799	     15.26251006	    -11.17917599	     -7.49999987	    -14.57363437	     -1.20573293	     -0.81871108	     -3.27255756	     -6.53820257	    -16.08536180	     18.35925082	     84.63421223	     25.58756279	    -14.64111666	      8.24322742	     35.20474602	     80.68334611
